<?xml version="1.0" encoding="UTF-8"?>
<svg width="26px" height="75px" viewBox="0 0 26 75" version="1.1" xmlns="http://www.w3.org/2000/svg" xmlns:xlink="http://www.w3.org/1999/xlink">
    <!-- Generator: Sketch 51.1 (57501) - http://www.bohemiancoding.com/sketch -->
    <title>REVOLT</title>
    <desc>Created with Sketch.</desc>
    <defs></defs>
    <g id="Page-1" stroke="none" stroke-width="1" fill="none" fill-rule="evenodd">
        <g id="letsrevolt" transform="translate(-1414.000000, 0.000000)" fill="#D8D8D8">
            <path d="M1403.8,42.28 L1403.8,46.08 C1403.8,47.88 1403.92,49.6 1404.44,51 L1399.76,51 C1399.32,50.08 1399.28,48.4 1399.28,46.64 L1399.28,41.52 C1399.28,39.84 1398.96,39.04 1397.48,39.04 L1395.76,39.04 L1395.76,51 L1391.24,51 L1391.24,23 L1398.68,23 C1402.72,23 1403.8,24.28 1403.8,28.68 L1403.8,31.68 C1403.8,34.88 1403.24,36.36 1401.4,36.96 C1403.24,37.56 1403.8,39.12 1403.8,42.28 Z M1399.28,32.76 L1399.28,29.28 C1399.28,27.72 1399.16,27.24 1397.84,27.24 L1395.76,27.24 L1395.76,34.8 L1397.84,34.8 C1399.12,34.8 1399.28,34.28 1399.28,32.76 Z M1410.72,27.24 L1410.72,34.28 L1414.84,34.28 L1414.84,38.52 L1410.72,38.52 L1410.72,46.76 L1415.8,46.76 L1415.8,51 L1406.2,51 L1406.2,23 L1415.8,23 L1415.8,27.24 L1410.72,27.24 Z M1421.36,23 L1422.68,33.64 C1423.16,37.4 1423.48,41.84 1423.68,44.84 C1423.88,41.8 1424.24,37.4 1424.72,33.64 L1426.04,23 L1430.08,23 L1426.44,51 L1420.48,51 L1416.84,23 L1421.36,23 Z M1431.48,45.52 L1431.48,28.48 C1431.48,24.08 1432.52,22.8 1436.6,22.8 L1438.92,22.8 C1442.96,22.8 1444.04,24.08 1444.04,28.48 L1444.04,45.52 C1444.04,49.92 1442.96,51.2 1438.92,51.2 L1436.6,51.2 C1432.52,51.2 1431.48,49.92 1431.48,45.52 Z M1439.52,44.92 L1439.52,29.08 C1439.52,27.52 1439.4,27.04 1438.08,27.04 L1437.44,27.04 C1436.12,27.04 1436,27.52 1436,29.08 L1436,44.92 C1436,46.48 1436.12,46.96 1437.44,46.96 L1438.08,46.96 C1439.4,46.96 1439.52,46.48 1439.52,44.92 Z M1446.48,51 L1446.48,23 L1451,23 L1451,46.76 L1455.4,46.76 L1455.4,51 L1446.48,51 Z M1463.2,51 L1458.68,51 L1458.68,27.2 L1455.68,27.2 L1455.68,23 L1466.2,23 L1466.2,27.2 L1463.2,27.2 L1463.2,51 Z" id="REVOLT" transform="translate(1428.720000, 37.000000) rotate(-90.000000) translate(-1428.720000, -37.000000) "></path>
        </g>
    </g>
</svg>